<?xml version="1.0" encoding="UTF-8"?>
<svg width="40px" height="34px" viewBox="0 0 40 34" version="1.1" xmlns="http://www.w3.org/2000/svg" xmlns:xlink="http://www.w3.org/1999/xlink">
    <!-- Generator: Sketch 55.2 (78181) - https://sketchapp.com -->
    <title>Group</title>
    <desc>Created with Sketch.</desc>
    <g id="OutilDeVisualisation_FINAL" stroke="none" stroke-width="1" fill="none" fill-rule="evenodd">
        <g id="SkillCorner_Produit_TailleStandard_Event_2" transform="translate(-166.000000, -82.000000)">
            <g id="Group-19" transform="translate(166.000000, 82.000000)">
                <g id="Group-18">
                    <g id="Group">
                        <path d="M17.7395789,1.57894737 C14.1122105,1.57894737 11.1606316,4.53052632 11.1606316,8.15789474 C11.1606316,11.7852632 14.1122105,14.7368421 17.7395789,14.7368421 C21.3669474,14.7368421 24.3185263,11.7852632 24.3185263,8.15789474 C24.3185263,4.53052632 21.3669474,1.57894737 17.7395789,1.57894737 M17.7395789,16.3157895 C13.2406316,16.3157895 9.58168421,12.6568421 9.58168421,8.15789474 C9.58168421,3.65894737 13.2406316,4.31654712e-13 17.7395789,4.31654712e-13 C22.2385263,4.31654712e-13 25.8974737,3.65894737 25.8974737,8.15789474 C25.8974737,12.6568421 22.2385263,16.3157895 17.7395789,16.3157895" id="Fill-1" fill="#FFFFFF"></path>
                        <path d="M30.3711579,5.08736842 C27.9037895,5.08736842 25.8974737,7.09368421 25.8974737,9.56105263 C25.8974737,12.0284211 27.9037895,14.0347368 30.3711579,14.0347368 C32.8385263,14.0347368 34.8448421,12.0284211 34.8448421,9.56105263 C34.8448421,7.09368421 32.8385263,5.08736842 30.3711579,5.08736842 M30.3711579,15.6136842 C27.0343158,15.6136842 24.3185263,12.8978947 24.3185263,9.56105263 C24.3185263,6.22421053 27.0343158,3.50842105 30.3711579,3.50842105 C33.708,3.50842105 36.4237895,6.22421053 36.4237895,9.56105263 C36.4237895,12.8978947 33.708,15.6136842 30.3711579,15.6136842" id="Fill-3" fill="#FFFFFF"></path>
                        <path d="M2.45473684,29.4911579 C2.21894737,29.7143158 1.94526316,29.6216842 1.86736842,29.5901053 C1.78105263,29.5543158 1.57894737,29.4406316 1.57894737,29.1837895 L1.57894737,19.0406316 C1.57894737,18.7837895 1.78105263,18.668 1.86736842,18.6322105 C1.90526316,18.6153684 1.99157895,18.5858947 2.09684211,18.5858947 C2.20631579,18.5858947 2.33473684,18.6174737 2.45473684,18.7311579 L6.42315789,22.5332632 L6.42315789,20.348 L3.54736842,17.5922105 C2.93684211,17.0069474 2.03578947,16.8427368 1.24631579,17.1795789 C0.477894737,17.508 5.95079541e-14,18.2195789 5.95079541e-14,19.0406316 L5.95079541e-14,29.1837895 C5.95079541e-14,30.0027368 0.477894737,30.7143158 1.24631579,31.0427368 C1.52,31.1585263 1.80421053,31.2153684 2.08842105,31.2153684 C2.62315789,31.2153684 3.14736842,31.0132632 3.54736842,30.6322105 L6.42315789,27.8743158 L6.42315789,25.6869474 L2.45473684,29.4911579 Z" id="Fill-5" fill="#FFFFFF"></path>
                        <path d="M37.1298947,14.9002105 L8.87515789,14.9002105 C7.52357895,14.9002105 6.42463158,15.8707368 6.42463158,17.0665263 L6.42463158,20.3486316 L8.00357895,21.8602105 L8.00357895,17.0665263 C8.00357895,16.7886316 8.36147368,16.4791579 8.87515789,16.4791579 L37.1298947,16.4791579 C37.6435789,16.4791579 38.0035789,16.7886316 38.0035789,17.0665263 L38.0035789,31.1570526 C38.0035789,31.4349474 37.6435789,31.7423158 37.1298947,31.7423158 L8.87515789,31.7423158 C8.36147368,31.7423158 8.00357895,31.4349474 8.00357895,31.1570526 L8.00357895,26.3612632 L6.42463158,27.8749474 L6.42463158,31.1570526 C6.42463158,32.3507368 7.52357895,33.3212632 8.87515789,33.3212632 L37.1298947,33.3212632 C38.4814737,33.3212632 39.5825263,32.3507368 39.5825263,31.1570526 L39.5825263,17.0665263 C39.5825263,15.8707368 38.4814737,14.9002105 37.1298947,14.9002105" id="Fill-9" fill="#FFFFFF"></path>
                        <path d="M18.4056842,20.6896842 C17.8941053,20.6896842 17.4772632,21.1065263 17.4772632,21.6202105 L17.4772632,26.6033684 C17.4772632,27.1149474 17.8941053,27.5317895 18.4056842,27.5317895 L27.5993684,27.5317895 C28.1109474,27.5317895 28.5298947,27.1149474 28.5298947,26.6033684 L28.5298947,21.6202105 C28.5298947,21.1065263 28.1109474,20.6896842 27.5993684,20.6896842 L18.4056842,20.6896842 Z M27.5993684,29.1107368 L18.4056842,29.1107368 C17.0225263,29.1107368 15.8983158,27.9844211 15.8983158,26.6033684 L15.8983158,21.6202105 C15.8983158,20.2370526 17.0225263,19.1107368 18.4056842,19.1107368 L27.5993684,19.1107368 C28.9825263,19.1107368 30.1088421,20.2370526 30.1088421,21.6202105 L30.1088421,26.6033684 C30.1088421,27.9844211 28.9825263,29.1107368 27.5993684,29.1107368 L27.5993684,29.1107368 Z" id="Fill-16" fill="#42B760"></path>
                    </g>
                </g>
            </g>
        </g>
    </g>
</svg>