<?xml version="1.0" encoding="UTF-8"?>
<svg width="9px" height="9px" viewBox="0 0 9 9" version="1.1" xmlns="http://www.w3.org/2000/svg" xmlns:xlink="http://www.w3.org/1999/xlink">
    <!-- Generator: Sketch 55.2 (78181) - https://sketchapp.com -->
    <title>Combined Shape</title>
    <desc>Created with Sketch.</desc>
    <g id="OutilDeVisualisation_FINAL" stroke="none" stroke-width="1" fill="none" fill-rule="evenodd">
        <g id="SkillCorner_Produit_TailleMin_LineUp" transform="translate(-204.000000, -144.000000)" fill="#42B760">
            <g id="TABS" transform="translate(15.000000, 143.000000)">
                <g id="tab_stats" transform="translate(189.000000, 0.000000)">
                    <path d="M0.25,5 L1.38636364,5 C1.52443482,5 1.63636364,5.11192881 1.63636364,5.25 L1.63636364,9.75 C1.63636364,9.88807119 1.52443482,10 1.38636364,10 L0.25,10 C0.111928813,10 5.0743624e-16,9.88807119 0,9.75 L0,5.25 C-1.69088438e-17,5.11192881 0.111928813,5 0.25,5 Z M2.70454545,1 L3.84090909,1 C3.97898028,1 4.09090909,1.11192881 4.09090909,1.25 L4.09090909,9.75 C4.09090909,9.88807119 3.97898028,10 3.84090909,10 L2.70454545,10 C2.56647427,10 2.45454545,9.88807119 2.45454545,9.75 L2.45454545,1.25 C2.45454545,1.11192881 2.56647427,1 2.70454545,1 Z M5.15909091,3 L6.29545455,3 C6.43352573,3 6.54545455,3.11192881 6.54545455,3.25 L6.54545455,9.75 C6.54545455,9.88807119 6.43352573,10 6.29545455,10 L5.15909091,10 C5.02101972,10 4.90909091,9.88807119 4.90909091,9.75 L4.90909091,3.25 C4.90909091,3.11192881 5.02101972,3 5.15909091,3 Z M7.61363636,6 L8.75,6 C8.88807119,6 9,6.11192881 9,6.25 L9,9.75 C9,9.88807119 8.88807119,10 8.75,10 L7.61363636,10 C7.47556518,10 7.36363636,9.88807119 7.36363636,9.75 L7.36363636,6.25 C7.36363636,6.11192881 7.47556518,6 7.61363636,6 Z" id="Combined-Shape"></path>
                </g>
            </g>
        </g>
    </g>
</svg>