<?xml version="1.0" encoding="UTF-8"?>
<svg width="14px" height="21px" viewBox="0 0 14 21" version="1.1" xmlns="http://www.w3.org/2000/svg" xmlns:xlink="http://www.w3.org/1999/xlink">
    <!-- Generator: Sketch 55.2 (78181) - https://sketchapp.com -->
    <title>TIMELINE/change</title>
    <desc>Created with Sketch.</desc>
    <g id="TIMELINE/change" stroke="none" stroke-width="1" fill="none" fill-rule="evenodd">
        <path d="M3.47586458,3.95166945 L1.44084829,6.00917151 L-1.82964754e-13,4.55240266 L3.05915171,1.45944906 L3.05650079,1.45676885 L4.49734909,-9.32587341e-15 L4.5,0.00268020444 L4.50265091,-1.0658141e-14 L5.94349921,1.45676885 L5.94084829,1.45944906 L9,4.55240266 L7.55915171,6.00917151 L5.51353177,3.94094863 L5.51353177,13 L3.47586458,13 L3.47586458,3.95166945 Z" id="Combined-Shape" fill="#42B760"></path>
        <path d="M8.47586458,12.9616035 L6.44084829,15.024278 L5,13.5638469 L8.05915171,10.463118 L8.05650079,10.460431 L9.49734909,9 L9.5,9.00268694 L9.50265091,9 L10.9434992,10.460431 L10.9408483,10.463118 L14,13.5638469 L12.5591517,15.024278 L10.5135318,12.9508558 L10.5135318,21 L8.47586458,21 L8.47586458,12.9616035 Z" id="Combined-Shape" fill="#DB2424" transform="translate(9.500000, 15.000000) scale(1, -1) translate(-9.500000, -15.000000) "></path>
    </g>
</svg>